<svg xmlns="http://www.w3.org/2000/svg" width="20" height="20" fill="none"><path fill="#D9D9D9" d="M3.719 3.93c1.909-.563 4.737-1.406 5.93-1.762.368-.11.759-.11 1.128-.003 1.149.337 3.821 1.123 5.888 1.758a.98.98 0 0 1 .693.96c-.24 10.104-5.338 12.528-6.774 13.01a1.16 1.16 0 0 1-.746.002c-1.442-.481-6.584-2.9-6.829-12.998a.99.99 0 0 1 .71-.967"/><mask id="a" width="15" height="16" x="3" y="2" maskUnits="userSpaceOnUse" style="mask-type:alpha"><path fill="#D9D9D9" d="M3.719 3.93c1.909-.563 4.737-1.406 5.93-1.762.368-.11.759-.11 1.128-.003 1.149.337 3.821 1.123 5.888 1.758a.98.98 0 0 1 .693.96c-.24 10.104-5.338 12.528-6.774 13.01a1.16 1.16 0 0 1-.746.002c-1.442-.481-6.584-2.9-6.829-12.998a.99.99 0 0 1 .71-.967"/></mask><g mask="url(#a)"><path fill="url(#b)" d="M10.211 9.775 10.1 1.718l7.718 2.085z"/><path fill="url(#c)" d="M10.211 9.775V2l-7.38 1.972L1.817 8.76l3.211 5.014z"/><path fill="url(#d)" d="M17.592 3.972 4.915 13.775v4.45h12.508z"/></g><defs><linearGradient id="b" x1="10.211" x2="15.62" y1="2" y2="5.549" gradientUnits="userSpaceOnUse"><stop stop-color="#19AAE8"/><stop offset="1" stop-color="#1EA5F1"/></linearGradient><linearGradient id="c" x1="3.056" x2="10.211" y1="4.141" y2="9.662" gradientUnits="userSpaceOnUse"><stop stop-color="#2BE2B8"/><stop offset="1" stop-color="#19B9E3"/></linearGradient><linearGradient id="d" x1="17.31" x2="7.958" y1="4.028" y2="16.986" gradientUnits="userSpaceOnUse"><stop stop-color="#925CDF"/><stop offset="1" stop-color="#CC42E5"/></linearGradient></defs></svg>