<svg xmlns="http://www.w3.org/2000/svg" xml:space="preserve" viewBox="0 0 122.88 109.79"><path d="m9.29 94.1 5.42 9.36c1.13 1.97 2.74 3.52 4.65 4.64l19.35-33.5H0c0 2.18.56 4.36 1.69 6.33z" style="fill:#1967d2"/><path d="M61.44 35.19 42.09 1.69c-1.9 1.13-3.52 2.67-4.65 4.65L1.69 68.27C.59 70.19 0 72.38 0 74.6h38.71z" style="fill:#34a853"/><path d="M103.53 108.1c1.9-1.13 3.52-2.67 4.65-4.64l2.25-3.87 10.77-18.65a12.7 12.7 0 0 0 1.69-6.33H84.17l8.24 16.19z" style="fill:#ea4335"/><path d="m61.44 35.19 19.35-33.5C78.89.56 76.71 0 74.46 0H48.42c-2.25 0-4.43.63-6.33 1.69z" style="fill:#188038"/><path d="M84.17 74.6H38.71l-19.35 33.5c1.9 1.13 4.08 1.69 6.33 1.69h71.5c2.25 0 4.44-.63 6.33-1.69z" style="fill:#4285f4"/><path d="M103.31 37.3 85.44 6.33c-1.13-1.97-2.74-3.52-4.64-4.65l-19.35 33.5L84.17 74.6h38.64c0-2.18-.56-4.36-1.69-6.33z" style="fill:#fbbc04"/></svg>