<svg xmlns="http://www.w3.org/2000/svg" viewBox="-18.458 -22.75 191.151 191.151"><path fill="#5d87a1" d="M32.518 90.393h-7.812q-.416-19.779-2.283-37.202h-.069L10.459 90.393H4.511L-7.313 53.191h-.068Q-8.696 69.922-9.04 90.393h-7.121q.69-24.892 3.455-46.678h9.684l11.27 34.299h.069l11.34-34.299h9.264q3.044 25.518 3.597 46.678M66.4 55.954q-4.772 25.89-12.586 37.634-6.087 9.042-13.346 9.043c-1.291 0-2.884-.39-4.77-1.162v-4.163c.922.133 2.005.209 3.248.209 2.262 0 4.079-.623 5.465-1.87q2.487-2.279 2.487-5.114c0-1.295-.647-3.943-1.936-7.953l-8.573-26.625h7.675l6.154 19.913q2.074 6.78 1.729 9.476c3.364-8.987 5.714-18.787 7.054-29.391H66.4z"/><path fill="#f8981d" d="M170.396 90.393h-22.193V43.715h7.466v40.932h14.727zm-28.003 1.128-8.58-4.235c.76-.624 1.488-1.301 2.143-2.084 3.648-4.285 5.467-10.621 5.467-19.014 0-15.442-6.06-23.168-18.185-23.168-5.944 0-10.582 1.96-13.899 5.881q-5.466 6.429-5.464 18.949c0 8.205 1.613 14.223 4.838 18.042q4.428 5.19 13.351 5.19 3.328.001 6.112-.82l11.171 6.504zm-27.798-10.469q-2.834-4.559-2.834-14.654c0-11.753 3.57-17.637 10.718-17.637 3.737 0 6.475 1.408 8.227 4.216 1.886 3.045 2.837 7.883 2.837 14.521q0 17.776-10.719 17.776c-3.737.001-6.476-1.401-8.229-4.222m-13.973-3.597q-.001 5.936-4.355 9.75-4.357 3.801-11.679 3.803c-4.566 0-8.992-1.459-13.277-4.36l2.006-4.008c3.687 1.846 7.025 2.764 10.022 2.764 2.813 0 5.01-.624 6.605-1.86 1.592-1.241 2.542-2.982 2.542-5.183 0-2.774-1.934-5.143-5.482-7.129-3.271-1.796-9.814-5.552-9.814-5.552-3.546-2.585-5.322-5.36-5.322-9.932q0-5.674 3.973-9.16c2.653-2.333 6.076-3.495 10.271-3.495 4.333 0 8.271 1.161 11.82 3.459l-1.8 4.01q-4.552-1.935-8.984-1.935c-2.393 0-4.241.576-5.526 1.73-1.295 1.152-2.094 2.623-2.094 4.429 0 2.759 1.975 5.16 5.619 7.184 3.316 1.799 10.022 5.62 10.022 5.62 3.637 2.58 5.453 5.33 5.453 9.865"/></svg>