<svg xmlns="http://www.w3.org/2000/svg" viewBox="0 0 500 500"><path fill="#3f3d56" d="M338.626 235.31a2.46 2.46 0 0 1 1.286 3.231l-3.339 7.756.378.194-2.277 5.264-.364-.202-11.963 27.786a4.265 4.265 0 0 1-5.082 2.416l-18.6-5.285a3.227 3.227 0 0 1-2.025-4.507l18.747-38.877a3.994 3.994 0 0 1 4.499-2.156l18.302 4.239q.226.05.438.141"/><path d="m323.145 233.926 9.621 2.228a.81.81 0 0 0 .896-.407.914.914 0 0 1 1.014-.46l2.026.469a1.94 1.94 0 0 1 1.345 2.656l-17.313 40.297a2.214 2.214 0 0 1-2.675 1.246l-18.47-5.572a1.71 1.71 0 0 1-1.051-2.37l18.299-38.629a2.76 2.76 0 0 1 3.117-1.507l2.136.495a1.38 1.38 0 0 0 1.055 1.554" style="fill:#fff"/><path fill="#ffb8b8" d="m277.339 445.314 11.432-.001 5.437-44.096-16.873.001z"/><path fill="#2f2e41" d="M274.888 442.046h35.93v13.882H288.77c-7.666 0-13.882-6.215-13.882-13.882" style="transform-origin:292.853px 448.987px" transform="rotate(180 0 0)"/><path fill="#ffb8b8" d="m215.717 445.314 11.433-.001 5.436-44.096-16.873.001z"/><path fill="#2f2e41" d="M213.268 442.046h35.93v13.882H227.15c-7.667 0-13.882-6.215-13.882-13.882" style="transform-origin:231.233px 448.987px" transform="rotate(180 0 0)"/><circle cx="249.198" cy="107.278" r="24.561" fill="#ffb8b8"/><path fill="#ffb8b8" d="M333.181 267.456c-.731-5.792-6.519-9.516-12.092-7.78l-13.727-16.454-12.033 5.903 19.71 22.964c2.612 6.771 11.575 8.176 16.133 2.528a9.43 9.43 0 0 0 2.009-7.161m-118.134 16.641c2.491-5.279-.396-11.527-6.031-13.052l-2.756-21.25-13.322-1.475 4.313 29.955c-1.428 7.115 5.382 13.109 12.259 10.788a9.43 9.43 0 0 0 5.537-4.966"/><path d="M196.404 271.104a4.5 4.5 0 0 1-4.451-3.84l-6.558-44.158a31.75 31.75 0 0 1 1.932-16.453l20.131-50.24c3.603-8.992 15.589-10.712 21.574-3.096l.035.044a12.56 12.56 0 0 1 1.56 12.868l-9.491 21.228a144.87 144.87 0 0 0-11.623 75.969 4.5 4.5 0 0 1-3.149 4.826l-8.639 2.653a4.5 4.5 0 0 1-1.321.199Z" style="fill:#8c00ef;stroke:#2f2e41"/><path fill="#2f2e41" d="M243.218 131.838c-20.168.435-33.244-21.125-23.538-38.808a26.21 26.21 0 0 1 28.448-13.018c5.402-3.279 11.681-5.486 17.975-4.925 6.294.562 12.519 4.298 14.872 10.163 2.354 5.864-.175 13.594-6.027 15.977-3.752 1.528-7.989.787-11.993.171-4.003-.616-8.371-1.019-11.856 1.047s-5.051 7.606-1.93 10.189a10.74 10.74 0 0 1 3.084 11.82c-1.568 4.056-5.849 7.315-9.035 7.384M212.389 436.43a4.5 4.5 0 0 1-4.5-4.619l4.369-165.816.476-.01 72.227-1.575 12.47 161.236a4.51 4.51 0 0 1-2.981 4.562l-.137.028-14.175.866a4.5 4.5 0 0 1-5.831-3.282L251.2 324.423a1.5 1.5 0 0 0-2.945.092l-17.072 107.389a4.52 4.52 0 0 1-4.214 3.788l-14.353.732a4 4 0 0 1-.227.006"/><path d="M233.646 279.72c-8.988 0-16.837-1.358-21.171-5.232-2.785-2.49-3.99-5.876-3.58-10.064 1.54-15.743-1.129-50.248-3.639-76.422a46.5 46.5 0 0 1 10.72-34.276 44.28 44.28 0 0 1 30.868-15.771c8.269-.589 27.631-1.962 33.65 13.453 9.041 23.156 4.619 33.775.343 44.045-3.633 8.724-7.39 17.746-2.785 34.688a253 253 0 0 0 9.227 27.598c2.494 6.395 3.745 9.604 2.59 11.7-.912 1.654-3.186 2.374-7.063 3.125-1.267.245-2.94.601-4.933 1.025-10.133 2.153-28.847 6.131-44.227 6.131Z" style="fill:#8c00ef;stroke:#2f2e41"/><path d="m307.437 265.207-.103-.001a4.5 4.5 0 0 1-3.376-1.644l-25.459-31.024a48.4 48.4 0 0 1-10.373-23.045l-7.839-48.991c-1.53-9.565 7.868-17.2 16.917-13.743a12.59 12.59 0 0 1 8.003 10.256L288.323 183a134.26 134.26 0 0 0 26.945 65.934l1.781 2.311a4.5 4.5 0 0 1-.221 5.758l-6.047 6.715a4.5 4.5 0 0 1-3.344 1.489Z" style="fill:#8c00ef;stroke:#2f2e41"/></svg>